<svg xmlns="http://www.w3.org/2000/svg" version="1.1" xmlns:xlink="http://www.w3.org/1999/xlink" width="512" height="512" x="0" y="0" viewBox="0 0 48 48" style="enable-background:new 0 0 512 512" xml:space="preserve" class=""><g><path d="M45 33.14c0-4.16.28-8.68-3.17-14.21a2 2 0 0 0-.21-2.46l-2.91-3.11A2 2 0 0 0 36.3 13a20.83 20.83 0 0 0-7.41-3.4 3 3 0 0 0-.81-1.67C27 6.74 26 7 22.08 7a3 3 0 0 0-3 2.59A21.07 21.07 0 0 0 11.7 13c-1.82-1-2.89.88-5.32 3.48a2 2 0 0 0-.21 2.46C2.73 24.45 3 29 3 33.14A4 4 0 0 0 4 41h40a4 4 0 0 0 1-7.86ZM43 33H28l.82-21.37a19.09 19.09 0 0 1 6.23 2.95l-4.47 8.94A2.61 2.61 0 0 0 33 27.29c1.47 0 1.47-.42 7.42-6.81C43.28 25.37 43 29.35 43 33Zm-2.84-15.17c-7.34 7.89-6.82 7.46-7.19 7.46a.61.61 0 0 1-.56-.88l4.84-9.68Zm-18.8-8.52c.39-.41.4-.31 4.56-.31a1 1 0 0 1 1 1L26 33h-4c-1-24.95-1.07-23.25-.64-23.69Zm-10.61 5.42c5.17 10.34 5.16 9.94 4.72 10.38a.6.6 0 0 1-.87 0l-6.76-7.28Zm-3.18 5.75 5.56 6a2.61 2.61 0 0 0 4.25-2.94l-4.47-8.94a19.28 19.28 0 0 1 6.23-2.95L20 33H5c0-4.13-.21-7.75 2.57-12.52ZM44 39H4a2 2 0 0 1 0-4h40a2 2 0 0 1 0 4Z" data-name="3. Helm construction" fill="#17637e" opacity="1" data-original="#000000" class=""></path></g></svg>