<svg xmlns="http://www.w3.org/2000/svg" version="1.1" xmlns:xlink="http://www.w3.org/1999/xlink" width="512" height="512" x="0" y="0" viewBox="0 0 99.519 99.519" style="enable-background:new 0 0 512 512" xml:space="preserve" class=""><g><path d="M68.753 91.728c-1.058 0-2.048-.829-1.995-1.897.108-2.197-.327-4.543 1.105-6.238l20.569-21.264c3.935-3.906 5.467-17.418 6.923-22.526.837-2.618-2.115-3.49-3.756-2.803-.85.373-1.535 1.212-1.929 2.365-2.269 6.647-4.374 14.333-4.395 14.41-.734 2.514-4.511 1.499-3.859-1.055.021-.078 2.159-7.88 4.469-14.648.76-2.227 2.219-3.909 4.108-4.736 4.787-2.14 11.008 1.862 9.208 7.565l-3.437 15.468c-.688 2.658-2.354 6.467-4.428 8.708L70.945 86.16c-.168.56-.259 2.13-.192 3.467a2.003 2.003 0 0 1-2 2.101z" fill="#17637e" opacity="1" data-original="#000000"></path><path d="M54.267 88.442c-1.257.013-2.241-1.198-1.956-2.427.949-4.343 4.259-18.724 6.977-21.465 4.135-4.173 15.262-12.872 15.262-12.872 3.784-2.607 7.64-2.165 10.312 1.185 1.244 1.56 2.805 4.721-.719 8.364L72.297 73.083a2.003 2.003 0 0 1-2.829.001 2.002 2.002 0 0 1-.001-2.829L81.29 58.422c1.468-1.518 1.111-2.229.444-3.065-1.35-1.692-2.806-1.821-4.867-.418-.793.621-10.918 8.572-14.739 12.429-1.308 1.335-4.086 11.163-5.909 19.502a2 2 0 0 1-1.952 1.572zM30.786 91.728a2.003 2.003 0 0 1-2-2.102c.068-1.338-.023-2.907-.191-3.467L8.232 65.11c-2.104-2.273-3.77-6.082-4.442-8.672L.337 40.901c-1.886-5.575 4.544-9.768 9.209-7.565 1.889.828 3.347 2.51 4.107 4.736 2.31 6.768 4.447 14.57 4.469 14.648a2 2 0 0 1-3.859 1.055c-.021-.077-2.127-7.763-4.396-14.411-.394-1.152-1.078-1.992-1.928-2.365-1.641-.685-4.593.182-3.756 2.803 1.527 5.268 2.91 18.484 6.953 22.559l20.717 21.443c.955 1.31 1.031 4 .927 6.026a1.998 1.998 0 0 1-1.994 1.898z" fill="#17637e" opacity="1" data-original="#000000"></path><path d="M45.273 88.442a2 2 0 0 1-1.952-1.573c-1.824-8.339-4.602-18.167-5.909-19.502-3.822-3.856-13.947-11.808-14.74-12.429-2.059-1.401-3.517-1.274-4.867.418-.667.837-1.024 1.548.467 3.089l11.8 11.811a2 2 0 0 1-2.83 2.826L15.42 61.249c-3.547-3.666-1.985-6.827-.741-8.387 2.671-3.35 6.525-3.793 10.311-1.185 0 0 11.127 8.699 15.264 12.873 2.717 2.741 6.026 17.122 6.975 21.465.284 1.228-.699 2.443-1.956 2.427zM49.774 58.059a1.998 1.998 0 0 1-1.418-.59L25.9 34.875a15.836 15.836 0 0 1-4.639-11.295c-.393-14.702 19.592-21.501 28.511-9.944 8.989-11.587 28.875-4.733 28.507 9.946a15.837 15.837 0 0 1-4.639 11.294L51.193 57.468a2 2 0 0 1-1.419.591zM37.223 11.686c-10.3-.369-16.018 13.321-8.486 20.369l21.037 21.167c4.04-5.478 25.724-21.796 24.506-29.627.327-10.315-13.417-15.956-20.43-8.387-3.236 3.258-3.236 3.258-4.076 3.259-1.293.17-3.21-2.593-4.082-3.26a11.86 11.86 0 0 0-8.469-3.521z" fill="#17637e" opacity="1" data-original="#000000"></path></g></svg>