<svg xmlns="http://www.w3.org/2000/svg" version="1.1" xmlns:xlink="http://www.w3.org/1999/xlink" width="512" height="512" x="0" y="0" viewBox="0 0 24 24" style="enable-background:new 0 0 512 512" xml:space="preserve" class=""><g><g fill="#000" fill-rule="evenodd" clip-rule="evenodd"><path d="M12 11.667A3.333 3.333 0 1 0 12 5a3.333 3.333 0 0 0 0 6.667zm0-1A2.333 2.333 0 1 0 12 6a2.333 2.333 0 0 0 0 4.667zM7.5 10.5a2.5 2.5 0 1 1-5 0 2.5 2.5 0 0 1 5 0zm-1 0a1.5 1.5 0 1 1-3 0 1.5 1.5 0 0 1 3 0z" fill="#17637e" opacity="1" data-original="#000000"></path><path d="M1.5 19v-2a3.5 3.5 0 0 1 6.428-1.918 4.5 4.5 0 0 1 8.144 0A3.5 3.5 0 0 1 22.5 17v2a.5.5 0 0 1-.5.5H2a.5.5 0 0 1-.5-.5zm1-2a2.5 2.5 0 0 1 5 0v1.5h-5zm19 1.5V17a2.5 2.5 0 0 0-5 0v1.5zm-6 0V17a3.5 3.5 0 1 0-7 0v1.5z" fill="#17637e" opacity="1" data-original="#000000"></path><path d="M21.5 10.5a2.5 2.5 0 1 1-5 0 2.5 2.5 0 0 1 5 0zm-1 0a1.5 1.5 0 1 1-3 0 1.5 1.5 0 0 1 3 0z" fill="#17637e" opacity="1" data-original="#000000"></path></g></g></svg>