<svg xmlns="http://www.w3.org/2000/svg" version="1.1" xmlns:xlink="http://www.w3.org/1999/xlink" width="512" height="512" x="0" y="0" viewBox="0 0 512 512" style="enable-background:new 0 0 512 512" xml:space="preserve" class=""><g><path d="m232.094 249.575-98.069 98.059c-9.8 9.8-25.695 9.8-35.505 0-4.9-4.9-7.35-11.326-7.35-17.752a25.06 25.06 0 0 1 7.35-17.752l98.069-98.059" style="stroke-width:20;stroke-linecap:round;stroke-linejoin:round;stroke-miterlimit:10;" fill="none" stroke="#17637e" stroke-width="20" stroke-linecap="round" stroke-linejoin="round" stroke-miterlimit="10" data-original="#000000" class="" opacity="1"></path><path d="m232.094 249.575-98.069 98.059a25.02 25.02 0 0 0-7.35 17.742c0 6.426 2.45 12.852 7.35 17.752 9.8 9.81 25.695 9.81 35.494 0l17.487-17.486" style="stroke-width:20;stroke-linecap:round;stroke-linejoin:round;stroke-miterlimit:10;" fill="none" stroke="#17637e" stroke-width="20" stroke-linecap="round" stroke-linejoin="round" stroke-miterlimit="10" data-original="#000000" class="" opacity="1"></path><path d="M196.59 214.071 98.52 312.13c-9.8 9.81-25.695 9.81-35.494 0a25.02 25.02 0 0 1-7.35-17.742c0-6.426 2.45-12.852 7.35-17.752L204.582 135.08l-.001-.018 51.726 51.726c11.764 11.764 30.836 11.764 42.6 0h0c11.764-11.764 11.764-30.836 0-42.6l-42.886-42.886-.02.02.02-.02 14.77-14.77c52.905-52.905 138.644-52.905 191.55 0 22.06 22.06 34.912 49.803 38.557 78.499 5.141 40.163-7.711 82.205-38.557 113.05l-77.064 73.214M278.778 457.795h0c-9.803 9.803-25.697 9.803-35.5 0l-56.441-56.441c-9.803-9.803-9.803-25.697 0-35.5h0c9.803-9.803 25.697-9.803 35.5 0l56.441 56.441c9.803 9.803 9.803 25.697 0 35.5z" style="stroke-width:20;stroke-linecap:round;stroke-linejoin:round;stroke-miterlimit:10;" fill="none" stroke="#17637e" stroke-width="20" stroke-linecap="round" stroke-linejoin="round" stroke-miterlimit="10" data-original="#000000" class="" opacity="1"></path><path d="M314.278 422.295h0c-9.803 9.803-25.697 9.803-35.5 0l-56.441-56.441c-9.803-9.803-9.803-25.697 0-35.5v0c9.803-9.803 25.697-9.803 35.5 0l56.441 56.441c9.803 9.803 9.803 25.697 0 35.5zM349.778 386.795h0c-9.803 9.803-25.697 9.803-35.5 0l-56.441-56.441c-9.803-9.803-9.803-25.697 0-35.5h0c9.803-9.803 25.697-9.803 35.5 0l56.441 56.441c9.803 9.804 9.803 25.697 0 35.5z" style="stroke-width:20;stroke-linecap:round;stroke-linejoin:round;stroke-miterlimit:10;" fill="none" stroke="#17637e" stroke-width="20" stroke-linecap="round" stroke-linejoin="round" stroke-miterlimit="10" data-original="#000000" class="" opacity="1"></path><path d="M385.278 351.296h0c-9.803 9.803-25.697 9.803-35.5 0l-56.441-56.441c-9.803-9.803-9.803-25.697 0-35.5h0c9.803-9.803 25.697-9.803 35.5 0l56.441 56.441c9.803 9.803 9.803 25.697 0 35.5zM63.026 276.636 204.582 135.08l-.001-.018 51.726 51.726c11.764 11.764 30.836 11.764 42.6 0h0c11.764-11.764 11.764-30.836 0-42.6l-51.726-51.726 8.84 8.84-.02.02-14.79-14.79c-52.895-52.905-138.644-52.905-191.55 0-22.05 22.06-34.912 49.813-38.557 78.499A134.205 134.205 0 0 0 10 182.302c0 34.671 13.214 69.332 39.661 95.78l7.731 7.189 5.634-8.635z" style="stroke-width:20;stroke-linecap:round;stroke-linejoin:round;stroke-miterlimit:10;" fill="none" stroke="#17637e" stroke-width="20" stroke-linecap="round" stroke-linejoin="round" stroke-miterlimit="10" data-original="#000000" class="" opacity="1"></path></g></svg>