<?xml version="1.0" encoding="UTF-8"?><svg id="Capa_2" xmlns="http://www.w3.org/2000/svg" viewBox="0 0 242.79 242.79"><defs><style>.cls-1{fill:#fff;stroke-width:0px;}</style></defs><g id="Capa_9"><path class="cls-1" d="M174.59,242.79h-106.39c-4.09,0-7.41-3.32-7.41-7.41s3.32-7.41,7.41-7.41h15.39v-38.19c0-4.09,3.32-7.41,7.41-7.41h60.79c4.09,0,7.41,3.32,7.41,7.41v38.19h15.39c4.09,0,7.41,3.32,7.41,7.41s-3.32,7.41-7.41,7.41ZM98.41,227.98h45.98v-30.78h-45.98v30.78Z"/><path class="cls-1" d="M220.19,197.2H22.61c-6.04,0-11.72-2.35-15.99-6.63C2.35,186.31,0,180.63,0,174.59V53c0-6.04,2.35-11.72,6.63-15.99,4.26-4.27,9.94-6.62,15.98-6.62h36.92c4.09,0,7.41,3.32,7.41,7.41s-3.32,7.41-7.41,7.41H22.61c-2.08,0-4.04.81-5.5,2.28-1.46,1.46-2.29,3.46-2.29,5.51v121.59c0,2.05.83,4.06,2.28,5.5,1.48,1.48,3.43,2.29,5.51,2.29h197.58c2.08,0,4.03-.81,5.5-2.28,1.46-1.45,2.29-3.46,2.29-5.51V53c0-2.05-.83-4.06-2.28-5.5-1.48-1.48-3.43-2.29-5.51-2.29h-36.92c-4.09,0-7.41-3.32-7.41-7.41s3.32-7.41,7.41-7.41h36.92c6.04,0,11.72,2.35,15.99,6.63,4.27,4.26,6.62,9.94,6.62,15.98v121.59c0,6.04-2.35,11.72-6.63,15.99-4.26,4.27-9.94,6.62-15.98,6.62Z"/><path class="cls-1" d="M136.59,166.8h-30.4c-4.09,0-7.41-3.32-7.41-7.41v-11.63c-2.36-.83-4.66-1.78-6.91-2.87l-8.23,8.23c-2.89,2.89-7.58,2.89-10.47,0l-21.49-21.49c-2.89-2.89-2.89-7.58,0-10.47l8.23-8.23c-1.08-2.25-2.04-4.56-2.87-6.92h-11.63c-4.09,0-7.41-3.32-7.41-7.41v-30.4c0-4.09,3.32-7.41,7.41-7.41h11.64c.83-2.36,1.79-4.66,2.87-6.91l-8.23-8.23c-2.89-2.89-2.89-7.58,0-10.47l21.49-21.49c1.39-1.39,3.27-2.17,5.24-2.17h0c1.96,0,3.85.78,5.24,2.17l8.23,8.23c2.25-1.08,4.56-2.04,6.91-2.87V7.41c0-4.09,3.32-7.41,7.41-7.41h30.4c4.09,0,7.41,3.32,7.41,7.41v11.63c2.36.83,4.66,1.79,6.91,2.87l8.23-8.23c1.39-1.39,3.27-2.17,5.24-2.17s3.85.78,5.24,2.17l21.49,21.49c2.89,2.89,2.89,7.58,0,10.47l-8.23,8.23c1.08,2.25,2.04,4.56,2.87,6.91h11.63c4.09,0,7.41,3.32,7.41,7.41v30.4c0,4.09-3.32,7.41-7.41,7.41h-11.64c-.83,2.36-1.79,4.66-2.87,6.91l8.23,8.23c2.89,2.89,2.89,7.58,0,10.47l-21.49,21.49c-2.89,2.89-7.58,2.89-10.47,0l-8.23-8.23c-2.25,1.08-4.56,2.04-6.91,2.87v11.63c0,4.09-3.32,7.41-7.41,7.41ZM113.6,151.98h15.58v-9.71c0-3.38,2.29-6.33,5.56-7.17,4.83-1.25,9.46-3.17,13.75-5.71,2.91-1.73,6.62-1.26,9.01,1.14l6.88,6.87,11.02-11.02-6.88-6.88c-2.39-2.39-2.86-6.1-1.14-9.01,2.54-4.3,4.46-8.92,5.71-13.76.84-3.27,3.79-5.56,7.17-5.56h9.71v-15.58h-9.71c-3.38,0-6.33-2.29-7.17-5.56-1.25-4.83-3.17-9.46-5.71-13.75-1.72-2.91-1.25-6.62,1.14-9.01l6.88-6.88-11.02-11.02-6.88,6.88c-2.39,2.39-6.1,2.86-9.01,1.14-4.29-2.54-8.92-4.46-13.76-5.71-3.27-.84-5.56-3.79-5.56-7.17v-9.71s-15.58,0-15.58,0v9.71c0,3.38-2.29,6.33-5.56,7.17-4.83,1.25-9.46,3.17-13.75,5.71-2.91,1.72-6.62,1.26-9.01-1.14l-6.88-6.88-11.02,11.02,6.88,6.88c2.39,2.39,2.86,6.1,1.14,9.01-2.54,4.29-4.46,8.92-5.71,13.76-.84,3.27-3.79,5.56-7.17,5.56h-9.71v15.58h9.71c3.38,0,6.33,2.29,7.17,5.56,1.25,4.83,3.17,9.46,5.71,13.75,1.72,2.91,1.26,6.62-1.14,9.01l-6.88,6.88,11.02,11.02,6.88-6.87c2.39-2.4,6.1-2.86,9.01-1.14,4.3,2.54,8.93,4.46,13.76,5.71,3.27.84,5.56,3.79,5.56,7.17v9.71Z"/><path class="cls-1" d="M121.4,121.2c-20.85,0-37.8-16.96-37.8-37.8s16.96-37.8,37.8-37.8,37.8,16.96,37.8,37.8-16.96,37.8-37.8,37.8ZM121.4,60.41c-12.68,0-22.99,10.31-22.99,22.99s10.31,22.99,22.99,22.99,22.99-10.31,22.99-22.99-10.31-22.99-22.99-22.99Z"/></g></svg>