<?xml version="1.0" encoding="UTF-8"?><svg id="Capa_2" xmlns="http://www.w3.org/2000/svg" viewBox="0 0 213.21 213.21"><defs><style>.cls-1{fill:#fff;stroke-width:0px;}</style></defs><g id="Capa_9"><path class="cls-1" d="M204.88,98.28h-8.71c-3.93-43.04-38.2-77.31-81.24-81.24v-8.71c0-4.6-3.73-8.33-8.33-8.33s-8.33,3.73-8.33,8.33v8.71C55.23,20.97,20.97,55.24,17.04,98.28h-8.71c-4.6,0-8.33,3.73-8.33,8.33s3.73,8.33,8.33,8.33h8.71c3.93,43.04,38.2,77.31,81.24,81.24v8.71c0,4.6,3.73,8.33,8.33,8.33s8.33-3.73,8.33-8.33v-8.71c43.04-3.93,77.31-38.2,81.24-81.24h8.71c4.6,0,8.33-3.73,8.33-8.33s-3.73-8.33-8.33-8.33ZM171.57,114.93h7.85c-3.84,33.77-30.72,60.65-64.49,64.49v-7.85c0-4.6-3.73-8.33-8.33-8.33s-8.33,3.73-8.33,8.33v7.85c-33.77-3.84-60.65-30.72-64.49-64.49h7.85c4.6,0,8.33-3.73,8.33-8.33s-3.73-8.33-8.33-8.33h-7.85c3.84-33.77,30.72-60.65,64.49-64.49v7.85c0,4.6,3.73,8.33,8.33,8.33s8.33-3.73,8.33-8.33v-7.85c33.77,3.84,60.65,30.72,64.49,64.49h-7.85c-4.6,0-8.33,3.73-8.33,8.33s3.73,8.33,8.33,8.33ZM129.42,86.46c3.25-3.25,8.52-3.25,11.78,0,3.25,3.25,3.25,8.53,0,11.78l-32.66,32.66c-5.52,5.52-10.22,5.02-13.51,1.73l-23.02-23.02c-3.32-3.32-3.25-8.76.22-11.99,3.3-3.08,8.51-2.84,11.7.35l16.99,16.99,28.5-28.5h0Z"/></g></svg>