<?xml version="1.0" encoding="UTF-8"?><svg id="Capa_2" xmlns="http://www.w3.org/2000/svg" viewBox="0 0 193.13 193.13"><defs><style>.cls-1{fill:#fff;stroke-width:0px;}</style></defs><g id="Capa_9"><path class="cls-1" d="M181.81,125.46V16.97c0-9.36-7.61-16.97-16.97-16.97H39.98c-9.36,0-16.97,7.61-16.97,16.97v6.04h-6.04C7.61,23.01,0,30.62,0,39.98s7.61,16.97,16.97,16.97h6.04v22.63h-6.04c-9.36,0-16.97,7.61-16.97,16.97s7.61,16.97,16.97,16.97h6.04v22.63h-6.04c-9.36,0-16.97,7.61-16.97,16.97s7.61,16.97,16.97,16.97h6.04v5.66c0,4.51,1.73,8.81,4.88,12.1,3.24,3.39,7.53,5.25,12.09,5.25h113.54c21.84,0,39.61-17.94,39.61-39.98,0-10.77-4.32-20.54-11.32-27.69ZM16.97,45.64c-3.12,0-5.66-2.54-5.66-5.66s2.54-5.66,5.66-5.66h11.69c3.12,0,5.66,2.54,5.66,5.66s-2.54,5.66-5.66,5.66h-11.69ZM16.97,102.22c-3.12,0-5.66-2.54-5.66-5.66s2.54-5.66,5.66-5.66h11.69c3.12,0,5.66,2.54,5.66,5.66s-2.54,5.66-5.66,5.66h-11.69ZM28.67,158.8h-11.69c-3.12,0-5.66-2.54-5.66-5.66s2.54-5.66,5.66-5.66h11.69c3.12,0,5.66,2.54,5.66,5.66s-2.54,5.66-5.66,5.66ZM39.98,181.81c-3.01,0-5.66-2.82-5.66-6.04v-6.63c6.59-2.34,11.32-8.62,11.32-16s-4.73-13.67-11.32-16v-24.58c6.59-2.34,11.32-8.62,11.32-16s-4.73-13.67-11.32-16v-24.58c6.59-2.34,11.32-8.62,11.32-16s-4.73-13.67-11.32-16v-7.01c0-3.12,2.54-5.66,5.66-5.66h124.85c3.12,0,5.66,2.54,5.66,5.66v100.39c-5.15-2.45-10.9-3.83-16.97-3.83-21.84,0-39.61,17.77-39.61,39.61,0,11.23,4.61,21.4,12.03,28.67H39.98ZM153.52,181.81c-15.6,0-28.29-12.86-28.29-28.67s12.69-28.29,28.29-28.29,28.29,12.69,28.29,28.29-12.69,28.67-28.29,28.67Z"/><path class="cls-1" d="M153.52,45.64h-33.95c-3.12,0-5.66,2.53-5.66,5.66s2.53,5.66,5.66,5.66h33.95c3.12,0,5.66-2.53,5.66-5.66s-2.53-5.66-5.66-5.66ZM153.52,90.91h-33.95c-3.12,0-5.66,2.53-5.66,5.66s2.53,5.66,5.66,5.66h33.95c3.12,0,5.66-2.53,5.66-5.66s-2.53-5.66-5.66-5.66ZM164.84,147.49h-5.66v-5.66c0-3.12-2.53-5.66-5.66-5.66s-5.66,2.53-5.66,5.66v11.32c0,3.12,2.53,5.66,5.66,5.66h11.32c3.12,0,5.66-2.53,5.66-5.66s-2.53-5.66-5.66-5.66ZM100.56,35.98c-2.21-2.21-5.79-2.21-8,0l-18.63,18.63-8.91-8.91c-2.21-2.21-5.79-2.21-8,0-2.21,2.21-2.21,5.79,0,8l12.91,12.91c1.1,1.1,2.55,1.66,4,1.66s2.9-.55,4-1.66l22.63-22.63c2.21-2.21,2.21-5.79,0-8h0ZM100.56,81.25c-2.21-2.21-5.79-2.21-8,0l-18.63,18.63-8.91-8.91c-2.21-2.21-5.79-2.21-8,0-2.21,2.21-2.21,5.79,0,8l12.91,12.91c1.1,1.1,2.55,1.66,4,1.66s2.9-.55,4-1.66l22.63-22.63c2.21-2.21,2.21-5.79,0-8h0ZM100.56,126.51c-2.21-2.21-5.79-2.21-8,0l-18.63,18.63-8.91-8.91c-2.21-2.21-5.79-2.21-8,0-2.21,2.21-2.21,5.79,0,8l12.91,12.91c1.1,1.1,2.55,1.66,4,1.66s2.9-.55,4-1.66l22.63-22.63c2.21-2.21,2.21-5.79,0-8h0Z"/></g></svg>