<svg xmlns="http://www.w3.org/2000/svg" version="1.1" xmlns:xlink="http://www.w3.org/1999/xlink" width="512" height="512" x="0" y="0" viewBox="0 0 514.413 514.413" style="enable-background:new 0 0 512 512" xml:space="preserve" class=""><g><path d="m288.388 193.072-53.565 134.675M316.658 277.929h74.088l-59.201 134.674M215.805 217.126h-84.571s44.777-81.163 52.166-90.229c7.472-9.167 14.547-3.449 15.221 4.637.674 8.086-.337 125.34-.337 125.34M93.78 259.199s-65.525.823-68.628-.211c-3.104-1.035 4.976-6.5 47.936-67.881 8.023-11.463 12.439-21.134 14.318-29.237l.666-5.21c0-19.032-15.429-34.461-34.461-34.461-16.747 0-30.704 11.946-33.814 27.781" style="stroke-width:30;stroke-linecap:round;stroke-linejoin:round;stroke-miterlimit:10;" fill="none" stroke="#2a81a9" stroke-width="30" stroke-linecap="round" stroke-linejoin="round" stroke-miterlimit="10" data-original="#000000" opacity="1" class=""></path><path d="M37.883 325.744c15.969 61.271 56.803 115.813 117.382 147.369 48.388 25.206 101.573 31.683 151.272 22.042" style="stroke-width:30;stroke-linecap:round;stroke-linejoin:round;stroke-miterlimit:10;stroke-dasharray:35,70;" fill="none" stroke="#2a81a9" stroke-width="30" stroke-linecap="round" stroke-linejoin="round" stroke-miterlimit="10" stroke-dasharray="35,70" data-original="#000000" opacity="1" class=""></path><path d="M363.152 476.411c43.623-20.957 81.085-55.686 105.164-101.91 59.216-113.678 15.066-253.835-98.612-313.051-65.075-33.898-138.827-33.923-201.106-6.423" style="stroke-width:30;stroke-linecap:round;stroke-linejoin:round;stroke-miterlimit:10;" fill="none" stroke="#2a81a9" stroke-width="30" stroke-linecap="round" stroke-linejoin="round" stroke-miterlimit="10" data-original="#000000" opacity="1" class=""></path><path d="m192.099 15-32.238 44.104 53.117 12.77" style="stroke-width:30;stroke-linecap:round;stroke-linejoin:round;stroke-miterlimit:10;" fill="none" stroke="#2a81a9" stroke-width="30" stroke-linecap="round" stroke-linejoin="round" stroke-miterlimit="10" data-original="#000000" opacity="1" class=""></path></g></svg>