<svg xmlns="http://www.w3.org/2000/svg" version="1.1" xmlns:xlink="http://www.w3.org/1999/xlink" width="512" height="512" x="0" y="0" viewBox="0 0 512 512" style="enable-background:new 0 0 512 512" xml:space="preserve"><g><path d="M368.467 497H143.533M191.733 400.6h128.533V497H191.733z" style="stroke-width:30;stroke-linecap:round;stroke-linejoin:round;stroke-miterlimit:10;" fill="none" stroke="#2a81a9" stroke-width="30" stroke-linecap="round" stroke-linejoin="round" stroke-miterlimit="10" data-original="#000000" opacity="1"></path><path d="M125.185 79.267H47.133a32.096 32.096 0 0 0-22.718 9.415A32.096 32.096 0 0 0 15 111.4v257.067a32.096 32.096 0 0 0 9.415 22.718 32.096 32.096 0 0 0 22.718 9.415h417.733a32.096 32.096 0 0 0 22.718-9.415 32.096 32.096 0 0 0 9.415-22.718V111.4a32.096 32.096 0 0 0-9.415-22.718 32.096 32.096 0 0 0-22.718-9.415h-78.052" style="stroke-width:30;stroke-linecap:round;stroke-linejoin:round;stroke-miterlimit:10;" fill="none" stroke="#2a81a9" stroke-width="30" stroke-linecap="round" stroke-linejoin="round" stroke-miterlimit="10" data-original="#000000" opacity="1"></path><path d="M288.133 51.19a127.941 127.941 0 0 1 33.146 13.753l25.61-25.61 45.445 45.444-25.61 25.611a127.623 127.623 0 0 1 13.753 33.145h36.19V207.8h-36.19a127.92 127.92 0 0 1-13.753 33.145l25.61 25.611L346.889 312l-25.61-25.61a127.664 127.664 0 0 1-33.146 13.753v36.19h-64.267v-36.19a127.941 127.941 0 0 1-33.146-13.753L165.111 312l-45.445-45.444 25.61-25.611a127.623 127.623 0 0 1-13.753-33.145h-36.19v-64.267h36.19a127.92 127.92 0 0 1 13.753-33.145l-25.61-25.611 45.445-45.444 25.61 25.61a127.664 127.664 0 0 1 33.146-13.753V15h64.267v36.19z" style="stroke-width:30;stroke-linecap:round;stroke-linejoin:round;stroke-miterlimit:10;" fill="none" stroke="#2a81a9" stroke-width="30" stroke-linecap="round" stroke-linejoin="round" stroke-miterlimit="10" data-original="#000000" opacity="1"></path><circle cx="256" cy="175.667" r="64.267" style="stroke-width:30;stroke-linecap:round;stroke-linejoin:round;stroke-miterlimit:10;" fill="none" stroke="#2a81a9" stroke-width="30" stroke-linecap="round" stroke-linejoin="round" stroke-miterlimit="10" data-original="#000000" opacity="1"></circle></g></svg>