<svg xmlns="http://www.w3.org/2000/svg" version="1.1" xmlns:xlink="http://www.w3.org/1999/xlink" width="512" height="512" x="0" y="0" viewBox="0 0 512 512" style="enable-background:new 0 0 512 512" xml:space="preserve" class=""><g><path d="M482 332.596V45c0-24.813-20.187-45-45-45H106C81.187 0 61 20.187 61 45v16H45C20.187 61 0 81.187 0 106s20.187 45 45 45h16v60H45c-24.813 0-45 20.187-45 45s20.187 45 45 45h16v60H45c-24.813 0-45 20.187-45 45s20.187 45 45 45h16v15c0 11.955 4.597 23.347 12.944 32.079C82.526 507.056 93.911 512 106 512h301c57.897 0 105-47.551 105-106 0-28.543-11.454-54.458-30-73.404zM45 121c-8.271 0-15-6.729-15-15s6.729-15 15-15h31c8.271 0 15 6.729 15 15s-6.729 15-15 15H45zm0 150c-8.271 0-15-6.729-15-15s6.729-15 15-15h31c8.271 0 15 6.729 15 15s-6.729 15-15 15H45zm31 150H45c-8.271 0-15-6.729-15-15s6.729-15 15-15h31c8.271 0 15 6.729 15 15s-6.729 15-15 15zm30 61c-7.99 0-15-7.477-15-16v-17.58c17.459-6.192 30-22.865 30-42.42 0-19.555-12.541-36.228-30-42.42v-65.16c17.459-6.192 30-22.865 30-42.42 0-19.555-12.541-36.228-30-42.42v-65.16c17.459-6.192 30-22.865 30-42.42s-12.541-36.228-30-42.42V45c0-8.271 6.729-15 15-15h331c8.271 0 15 6.729 15 15v266.145c-13.646-6.5-28.905-10.145-45-10.145-57.897 0-105 47.103-105 105 0 29.78 12.233 56.726 31.886 76H106zm301 0c-41.355 0-75-34.093-75-76 0-41.355 33.645-75 75-75s75 33.645 75 75c0 41.907-33.645 76-75 76z" fill="#2a81a9" opacity="1" data-original="#000000" class=""></path><path d="M407 121h-90c-8.284 0-15 6.716-15 15s6.716 15 15 15h90c8.284 0 15-6.716 15-15s-6.716-15-15-15zM407 241h-90c-8.284 0-15 6.716-15 15s6.716 15 15 15h90c8.284 0 15-6.716 15-15s-6.716-15-15-15zM437 391h-15v-15c0-8.284-6.716-15-15-15s-15 6.716-15 15v30c0 8.284 6.716 15 15 15h30c8.284 0 15-6.716 15-15s-6.716-15-15-15zM266.606 95.393c-5.857-5.858-15.355-5.858-21.212.001L196 144.787l-23.611-23.611c-5.857-5.858-15.355-5.858-21.213 0-5.858 5.858-5.858 15.355 0 21.213l34.218 34.218C188.322 179.536 192.161 181 196 181s7.678-1.464 10.606-4.394l60-60c5.858-5.858 5.858-15.355 0-21.213zM266.606 215.393c-5.857-5.858-15.355-5.858-21.212.001L196 264.787l-23.611-23.611c-5.857-5.858-15.355-5.858-21.213 0-5.858 5.858-5.858 15.355 0 21.213l34.218 34.218C188.322 299.536 192.161 301 196 301s7.678-1.464 10.606-4.394l60-60c5.858-5.858 5.858-15.355 0-21.213zM266.606 335.393c-5.857-5.858-15.355-5.858-21.212.001L196 384.787l-23.611-23.611c-5.857-5.858-15.355-5.858-21.213 0-5.858 5.858-5.858 15.355 0 21.213l34.218 34.218C188.322 419.536 192.161 421 196 421s7.678-1.464 10.606-4.394l60-60c5.858-5.858 5.858-15.355 0-21.213z" fill="#2a81a9" opacity="1" data-original="#000000" class=""></path></g></svg>