<svg xmlns="http://www.w3.org/2000/svg" version="1.1" xmlns:xlink="http://www.w3.org/1999/xlink" width="512" height="512" x="0" y="0" viewBox="0 0 512 512" style="enable-background:new 0 0 512 512" xml:space="preserve" class=""><g><path d="M492 236h-20.921C461.65 132.637 379.345 50.348 276 40.921V20c0-11.046-8.954-20-20-20s-20 8.954-20 20v20.921C132.637 50.35 50.348 132.655 40.921 236H20c-11.046 0-20 8.954-20 20s8.954 20 20 20h20.921C50.35 379.363 132.655 461.652 236 471.079V492c0 11.046 8.954 20 20 20s20-8.954 20-20v-20.921C379.363 461.65 461.652 379.345 471.079 276H492c11.046 0 20-8.954 20-20s-8.954-20-20-20zm-80 40h18.857c-9.216 81.097-73.76 145.641-154.857 154.857V412c0-11.046-8.954-20-20-20s-20 8.954-20 20v18.857C154.903 421.641 90.359 357.097 81.143 276H100c11.046 0 20-8.954 20-20s-8.954-20-20-20H81.143C90.359 154.903 154.903 90.359 236 81.143V100c0 11.046 8.954 20 20 20s20-8.954 20-20V81.143c81.097 9.216 145.641 73.76 154.857 154.857H412c-11.046 0-20 8.954-20 20s8.954 20 20 20zm-101.21-68.368c7.811-7.811 20.47-7.806 28.281.004 7.811 7.811 7.811 20.474 0 28.285l-78.429 78.428c-13.251 13.249-24.54 12.056-32.441 4.156l-55.272-55.272c-7.981-7.982-7.806-21.034.526-28.793 7.936-7.39 20.429-6.822 28.097.846l40.792 40.793 68.446-68.447z" fill="#2a81a9" opacity="1" data-original="#000000"></path></g></svg>