<svg xmlns="http://www.w3.org/2000/svg" version="1.1" xmlns:xlink="http://www.w3.org/1999/xlink" width="512" height="512" x="0" y="0" viewBox="0 0 512 512" style="enable-background:new 0 0 512 512" xml:space="preserve" class=""><g><path d="M437 90c-2.53 0-5.09.15-7.71.45-20.489-23.055-51.204-33.361-78.53-29.76C333.71 23.9 297.14 0 256 0s-77.71 23.9-94.76 60.69c-27.269-3.594-58.002 6.66-78.53 29.76-2.62-.3-5.18-.45-7.71-.45-41.36 0-75 33.65-75 75s33.64 75 75 75c12.56 0 24.76-3.17 35.76-9.22 20.041 9.665 44.301 12.504 67.75 4.74 19.81 21.77 48 34.48 77.49 34.48s57.68-12.71 77.49-34.48c23.335 7.726 47.612 4.972 67.75-4.74 11 6.05 23.2 9.22 35.76 9.22 41.36 0 75-33.65 75-75s-33.64-75-75-75zm-226 75h-30v-30h30zm60-60h-30V75h30zm60 60h-30v-30h30zM481 482v-30h-60v-30h60v-30h-60v-30h60v-60h-90v210h121v-30z" fill="#2a81a9" opacity="1" data-original="#000000"></path><path d="M342.35 268.49C318.2 288.69 287.59 300 256 300s-62.2-11.31-86.35-31.51c-6.18 1-12.41 1.51-18.65 1.51v242h30v-90h150v90h30V270c-6.24 0-12.47-.51-18.65-1.51zM211 392h-30v-30h30zm0-60h-30v-30h30zm60 60h-30v-30h30zm0-60h-30v-30h30zm60 60h-30v-30h30zm0-60h-30v-30h30z" fill="#2a81a9" opacity="1" data-original="#000000"></path><path d="M211 512h90v-60h-90zM31 362h60v30H31v30h60v30H31v30H0v30h121V302H31z" fill="#2a81a9" opacity="1" data-original="#000000"></path></g></svg>