<svg xmlns="http://www.w3.org/2000/svg" version="1.1" xmlns:xlink="http://www.w3.org/1999/xlink" width="512" height="512" x="0" y="0" viewBox="0 0 43.349 43.349" style="enable-background:new 0 0 512 512" xml:space="preserve" fill-rule="evenodd"><g><g fill-rule="nonzero"><path d="M37.265.185c-2.338 4.262-6.136 9.62-11.431 9.76l-.05 1.438c.795-.042 1.404-.109 2.186-.333 1.86-.533 3.995-1.819 5.358-3.238l1.579-1.644C35.915 5.07 37.19 1.652 37.265.185z" fill="#2a81a9" opacity="1" data-original="#000000"></path><path d="M39.457 8.637c-2.46-2.279-5.396-2.714-7.155-1.643l.62 1.017c2.806-.815 3.105-.337 6.535.627z" fill="#2a81a9" opacity="1" data-original="#000000"></path><path d="M41.106 6.05c-2.06-1.257-3.818-.368-5.395.67l.656.91c1.13-.852 2.004-1.484 4.74-1.58zM38.853 2.493c-2.433 1.954-3.905 2.556-4.817 2.79l.556 1.015c.98-.56 3.16-1.4 4.261-3.805zM16.098 12.17l.758 1.432c.43-.53 1.124-1.696 1.7-2.96.384-.846.628-1.586.884-2.217.984-2.427 2.475-2.925 4.77-3.399-2.548-.503-3.775-.223-4.478.32-1.176.908-1.468 2.413-2.475 4.627z" fill="#2a81a9" opacity="1" data-original="#000000"></path><path d="M21.905 2.163c-.46.992-2.173 2.65-2.374 3.346l1.17.222c.31-1.07 1.238-2.144 1.204-3.568z" fill="#2a81a9" opacity="1" data-original="#000000"></path><path d="M19.161 0c-.073 1.83-.26 5.086-.953 7.589l1.434.144c.081-.9.767-6.84-.481-7.733z" fill="#2a81a9" opacity="1" data-original="#000000"></path></g><path d="M11.8 5.602s3.424 8.322 5.97 14.844c0 0-.053 15.541-3.33 22.903h10.798c-1.071-3.72-3.308-12.952-2.842-23.87 0 0 .779-7.294 7.612-12.202-7.598.03-8.943 11.445-10.086 11.731-1.514.378-4.818-10.219-4.322-12.23-.803-.151-2.855-1.053-2.612-6.768 0 0-2.74 1.43-1.188 5.592z" fill="#2a81a9" opacity="1" data-original="#000000"></path><path fill-rule="nonzero" d="m22.469 17.397-.42 1.924c5.67.647 4.519-3.856 11.483-.499-5.303-6.022-6.69-.53-11.063-1.425z" fill="#2a81a9" opacity="1" data-original="#000000"></path><path fill-rule="nonzero" d="M35.548 16.112c-1.904-.89-3.368-.86-5.204.154l.722 1.316c.571-.562 1.115-1.295 4.482-1.47z" fill="#2a81a9" opacity="1" data-original="#000000"></path><path fill-rule="nonzero" d="M33.334 11.475c-2.212 3.066-4.75 4.196-5.829 4.948l.785.878c.656-.54 4.929-2.281 5.044-5.826zM4.74 4.06c.782 1.373 2.288 4.234 2.899 6.54a.798.798 0 0 0 .238.39l1.505 1.567c1.988 2.069 4.32 3.73 7.352 3.721v-1.597c-2.461.008-4.412-1.373-6.035-3.062l-1.55-1.614c-.192-.846-2.37-5.65-4.409-5.945z" fill="#2a81a9" opacity="1" data-original="#000000"></path><path fill-rule="nonzero" d="M3.236 13.95c2.195-.797 3.136-1.12 4.575-1.483.764-.192 1.51-.225 2.045.1l.619-1.015c-.964-.587-1.917-.924-3.052-.638-.757.19-2.946.99-4.187 3.035z" fill="#2a81a9" opacity="1" data-original="#000000"></path><path fill-rule="nonzero" d="M2.243 10.702c2.328.405 2.86.722 4.295 1.76l.933-1.297c-.633-.458-2.946-1.453-5.228-.463zM3.084 7.406c2.033.826 3.663 1.842 4.927 3.37l.789-1.39c-.972-.554-3.26-2.435-5.716-1.98z" fill="#2a81a9" opacity="1" data-original="#000000"></path></g></svg>