<svg xmlns="http://www.w3.org/2000/svg" version="1.1" xmlns:xlink="http://www.w3.org/1999/xlink" width="512" height="512" x="0" y="0" viewBox="0 0 64 64" style="enable-background:new 0 0 512 512" xml:space="preserve"><g><path d="M32.02 33.05a3.413 3.413 0 0 1 .45.57c.91-.7 1.82-1.44 2.74-2.24a50.258 50.258 0 0 0 4.89-4.9c.76-.86 1.5-1.76 2.24-2.73a3.379 3.379 0 0 1-.55-.45l-8.7-8.71a4.691 4.691 0 0 1-.46-.54 52.019 52.019 0 0 0-9.87 9.85 3.228 3.228 0 0 1 .58.47zM42.49 22.59a2.753 2.753 0 0 0 3.84 0v-.01a2.734 2.734 0 0 0 0-3.84l-8.69-8.69a2.772 2.772 0 0 0-3.84 0 2.621 2.621 0 0 0-.8 1.91 2.677 2.677 0 0 0 .8 1.92zM27.47 37.6a2.728 2.728 0 0 0 3.84 0h.01a2.744 2.744 0 0 0-.01-3.84l-8.69-8.69a2.782 2.782 0 0 0-3.84-.01 2.7 2.7 0 0 0-.8 1.93 2.637 2.637 0 0 0 .8 1.91zM55.34 41.06 41.11 26.83a3.876 3.876 0 0 1-.26.31 50.983 50.983 0 0 1-4.98 4.99c-.1.09-.2.17-.3.26l14.22 14.22a3.871 3.871 0 0 0 2.77 1.15 3.943 3.943 0 0 0 3.94-3.93 3.856 3.856 0 0 0-1.16-2.77zM39.58 48.82H10a2.5 2.5 0 0 0-2.5 2.5v2.93a.5.5 0 0 0 .5.5h33.58a.5.5 0 0 0 .5-.5v-2.93a2.5 2.5 0 0 0-2.5-2.5zM33.14 44.72h-16.7a4.588 4.588 0 0 0-4.34 3.1h25.38a4.588 4.588 0 0 0-4.34-3.1z" fill="#2a81a9" opacity="1" data-original="#000000"></path></g></svg>