<svg xmlns="http://www.w3.org/2000/svg" version="1.1" xmlns:xlink="http://www.w3.org/1999/xlink" width="512" height="512" x="0" y="0" viewBox="0 0 100 100" style="enable-background:new 0 0 512 512" xml:space="preserve" class=""><g><path d="m88.934 18.438-8.327 3.883c-.774 8.877-5.671 19.229-14.102 28.568 16.927-8.708 26.894-22.878 22.429-32.451z" fill="#2a81a9" opacity="1" data-original="#000000"></path><path d="M76.459 50.781a70.836 70.836 0 0 1-10.188 5.813A14.868 14.868 0 0 1 59.94 58h-6.605a14.91 14.91 0 0 1-10.605-4.391c-3.705-3.708-5.021-8.871-4.017-13.649a14.9 14.9 0 0 0 5.617-1.224c-1.754 3.711-1.134 8.265 1.934 11.334 3.908 3.903 10.236 3.906 14.142 0C74.721 35.755 80.001 17.813 72.188 10l-19.67 19.671c.488-1.478.816-3.031.816-4.671 0-8.285-6.715-15-15-15s-15 6.715-15 15c0 1.777.364 3.46.931 5.042L10.001 44.31l2.357 2.356L27.28 35.062a14.881 14.881 0 0 0 2.996 2.555c2 17.148 15.813 30.674 33.094 32.217 4.15 5.654 6.631 12.61 6.631 20.166 10.618-10.618 12.751-26.468 6.458-39.219zM34.167 25a2.5 2.5 0 0 1 0-5 2.5 2.5 0 0 1 0 5z" fill="#2a81a9" opacity="1" data-original="#000000"></path></g></svg>