<svg xmlns="http://www.w3.org/2000/svg" version="1.1" xmlns:xlink="http://www.w3.org/1999/xlink" width="512" height="512" x="0" y="0" viewBox="0 0 512 512" style="enable-background:new 0 0 512 512" xml:space="preserve" class=""><g><path d="M256.001 360.193a139.225 139.225 0 0 1-15 9.534V512h30V369.727a139.38 139.38 0 0 1-15-9.534z" fill="#2a81a9" opacity="1" data-original="#000000"></path><path d="M394.162 119.466c-4.535-31.37-19.603-60.217-43.037-82.042C325.212 13.291 291.43 0 256.001 0c-35.429 0-69.211 13.291-95.125 37.424-23.434 21.825-38.501 50.672-43.037 82.042-50.475 22.04-83.763 72.319-83.763 127.977 0 76.979 62.627 139.605 139.605 139.605 23.727 0 46.845-6.043 67.318-17.32v-61.059l-67.279-35.375 13.962-26.553 53.319 28.034V149.229h30v59.052l53.317-28.034L338.28 206.8l-67.279 35.376v127.552a139.476 139.476 0 0 0 67.318 17.32c76.979 0 139.605-62.627 139.605-139.605.001-55.658-33.287-105.938-83.762-127.977z" fill="#2a81a9" opacity="1" data-original="#000000"></path></g></svg>