<svg xmlns="http://www.w3.org/2000/svg" version="1.1" xmlns:xlink="http://www.w3.org/1999/xlink" width="512" height="512" x="0" y="0" viewBox="0 0 512 512" style="enable-background:new 0 0 512 512" xml:space="preserve" class=""><g><path d="M216 160h25v-8.787l-55.606-55.606c-5.858-5.858-5.858-15.355 0-21.213 5.857-5.858 15.355-5.858 21.213 0L256 123.787l49.394-49.394c5.857-5.858 15.355-5.858 21.213 0s5.858 15.355 0 21.213L271 151.213V160h25c49.706 0 90-40.294 90-90V15c0-8.284-6.716-15-15-15h-25c-49.706 0-90 40.294-90 90 0-49.706-40.294-90-90-90h-25c-8.284 0-15 6.716-15 15v55c0 49.706 40.294 90 90 90zM241 160v52h-79.855c-6.5 13.647-10.145 28.905-10.145 45 0 57.897 47.103 105 105 105s105-47.103 105-105c0-16.095-3.645-31.353-10.145-45H271v-52z" fill="#2a81a9" opacity="1" data-original="#000000" class=""></path><path d="M496 212H383.278c4.994 14.082 7.722 29.228 7.722 45 0 74.439-60.561 135-135 135s-135-60.561-135-135c0-15.772 2.728-30.918 7.722-45H16c-8.284 0-15 6.716-15 15v60c0 8.284 6.716 15 15 15h19.525a225.064 225.064 0 0 0 32.759 79.076l-13.809 13.81c-5.858 5.858-5.857 15.355 0 21.213l42.427 42.427c5.857 5.858 15.355 5.858 21.213 0l13.81-13.809a225.082 225.082 0 0 0 79.076 32.759V497c0 8.284 6.716 15 15 15h60c8.284 0 15-6.716 15-15v-19.525a225.076 225.076 0 0 0 79.077-32.759l13.809 13.809a14.999 14.999 0 0 0 21.211 0l42.427-42.427c5.858-5.858 5.858-15.355 0-21.213l-13.809-13.81a225.082 225.082 0 0 0 32.759-79.076H496c8.284 0 15-6.716 15-15v-60c0-8.283-6.716-14.999-15-14.999z" fill="#2a81a9" opacity="1" data-original="#000000" class=""></path></g></svg>