<svg xmlns="http://www.w3.org/2000/svg" version="1.1" xmlns:xlink="http://www.w3.org/1999/xlink" width="512" height="512" x="0" y="0" viewBox="0 0 512 512" style="enable-background:new 0 0 512 512" xml:space="preserve" class=""><g><path fill-rule="evenodd" d="M409.966 58.871v168.694h-37.242c-12.773-52.613-60.181-91.684-116.724-91.683-56.542 0-103.951 39.07-116.724 91.683h-37.242V58.871zM256 247.215c4.852 0 8.785 3.933 8.785 8.785s-3.933 8.785-8.785 8.785-8.785-3.933-8.785-8.785 3.933-8.785 8.785-8.785zm14.543-16.404 29.629-51.319c-27.148-15.688-61.194-15.68-88.346-.005l29.63 51.32c9.309-5.374 20.381-5.004 29.087.004zm-58.715 101.697c-26.391-15.279-44.148-43.82-44.164-76.507h59.25a29.043 29.043 0 0 0 14.543 25.188zm88.346.004-29.63-51.32c9.31-5.375 14.525-15.148 14.541-25.192h59.25c-.015 32.688-17.773 61.228-44.161 76.512zM97.834 467.129h316.332c7.94 0 14.435 6.496 14.435 14.435 0 7.94-6.496 14.436-14.435 14.436H97.834c-7.939 0-14.435-6.496-14.435-14.436-.001-7.939 6.495-14.435 14.435-14.435zm0-451.129h316.332c7.94 0 14.435 6.496 14.435 14.435 0 7.94-6.496 14.436-14.435 14.436H97.834c-7.939 0-14.435-6.496-14.435-14.436C83.398 22.496 89.894 16 97.834 16zm277.418 225.564h38.914c7.94 0 14.435 6.496 14.435 14.435 0 7.94-6.496 14.436-14.435 14.436h-38.914zm-238.504 28.872H97.834c-7.939 0-14.435-6.496-14.435-14.436 0-7.939 6.496-14.435 14.435-14.435h38.914zm273.218 13.999h-37.242c-12.772 52.614-60.182 91.683-116.724 91.683s-103.952-39.07-116.724-91.683h-37.242v168.694h307.931V284.435z" clip-rule="evenodd" fill="#2a81a9" opacity="1" data-original="#000000" class=""></path></g></svg>