<svg xmlns="http://www.w3.org/2000/svg" version="1.1" xmlns:xlink="http://www.w3.org/1999/xlink" width="512" height="512" x="0" y="0" viewBox="0 0 16.933 16.933" style="enable-background:new 0 0 512 512" xml:space="preserve" class=""><g><path d="M6.94.792a.265.265 0 0 0-.23.4l2.91 5.04-.917.527a.265.265 0 0 0 .094.492l3.35.51c.122.018.24-.05.285-.165l1.234-3.157a.265.265 0 0 0-.379-.324l-.918.53-2.146-3.72a.265.265 0 0 0-.229-.133zm-.612.796L4.432 4.873a.265.265 0 0 0 .095.361l2.291 1.322c.126.074.288.031.362-.095l.98-1.7zm-1.05 4.934a.181.181 0 0 0-.042.004l-3.35.512a.265.265 0 0 0-.091.49l.916.53-1.765 3.056h3.667l.848-1.47.916.529a.265.265 0 0 0 .379-.325L5.524 6.692a.265.265 0 0 0-.247-.17zm8.568 1.173a.26.26 0 0 0-.118.035l-2.29 1.322a.265.265 0 0 0-.098.362l.981 1.7h3.667L14.09 7.825a.265.265 0 0 0-.244-.131zm-3.8 2.623a.264.264 0 0 0-.199.1L7.73 13.064a.265.265 0 0 0 0 .33l2.117 2.647c.157.194.471.083.471-.166v-1.06h4.294c.095.001.183-.05.23-.132l1.527-2.644a.265.265 0 0 0-.23-.397h-5.82v-1.059c0-.149-.123-.269-.272-.265zM.768 11.642a.265.265 0 0 0-.203.397l1.528 2.644a.265.265 0 0 0 .23.133H6.88a.265.265 0 0 0 .266-.264v-2.646a.265.265 0 0 0-.266-.264H.767z" fill="#2a81a9" opacity="1" data-original="#000000"></path></g></svg>